<?xml version="1.0" encoding="UTF-8"?><svg id="Logos" xmlns="http://www.w3.org/2000/svg" viewBox="0 0 512 512"><defs><style>.cls-1{fill:#f6f8f9;}.cls-2{fill:#f96815;}.cls-3{fill:#f88f58;}.cls-4{fill:#e95c20;}.cls-5{fill:#eecfad;}.cls-6{fill:#fff;}.cls-7{fill:#ffd500;}.cls-8{fill:#9e9e9e;}.cls-9{fill:#b5332e;}.cls-10{fill:#333e83;}.cls-11{fill:#864c24;}.cls-12{fill:#a767a2;}.cls-13{fill:#bdbdbd;}.cls-14{fill:#ce4d42;}.cls-15{fill:#de9bc4;}.cls-16{fill:#e0e0e0;}.cls-17{fill:#212121;}.cls-18{fill:#202124;}.cls-19{fill:#424242;}.cls-20{fill:#6ea1d4;}.cls-21{fill:#595959;}.cls-22{fill:#39a845;}.cls-23{fill:#273c76;}.cls-24{fill:#3c824e;}.cls-25{fill:#2e62a3;}.cls-26{fill:#5c97cb;}.cls-27{fill:#777c82;}.cls-28{fill:#4db560;}</style></defs><rect class="cls-5" x="124.68169" y="205.57265" width="243.93282" height="87.11886"/><rect class="cls-5" x="176.95301" y="257.84397" width="174.23773" height="87.11886"/><rect class="cls-5" x="351.19074" y="292.69152" width="17.42377" height="34.84755"/><rect class="cls-5" x="159.52924" y="275.26774" width="17.42377" height="34.84755"/><rect class="cls-27" x="142.10547" y="362.38661" width="191.6615" height="69.69509"/><rect class="cls-27" x="124.68169" y="379.81038" width="261.35659" height="52.27132"/><rect class="cls-27" x="107.25792" y="397.23415" width="17.42377" height="34.84755"/><rect class="cls-27" x="89.83415" y="414.65793" width="17.42377" height="17.42377"/><rect class="cls-27" x="159.52924" y="344.96284" width="52.27132" height="17.42377"/><rect class="cls-27" x="351.19074" y="414.65793" width="52.27132" height="17.42377"/><rect class="cls-5" x="176.95301" y="153.30133" width="121.96641" height="52.27132"/><rect class="cls-5" x="142.10547" y="170.72511" width="191.6615" height="34.84755"/><rect class="cls-5" x="124.68169" y="205.57265" width="243.93282" height="87.11886"/><rect class="cls-5" x="176.95301" y="257.84397" width="174.23773" height="87.11886"/><rect class="cls-5" x="351.19074" y="292.69152" width="17.42377" height="34.84755"/><rect class="cls-5" x="159.52924" y="275.26774" width="17.42377" height="34.84755"/><rect class="cls-18" x="176.95301" y="327.53906" width="34.84755" height="17.42377"/><rect class="cls-18" x="211.80056" y="344.96284" width="139.39018" height="17.42377"/><rect class="cls-18" x="159.52924" y="310.11529" width="17.42377" height="17.42377"/><rect class="cls-18" x="142.10547" y="292.69152" width="17.42377" height="17.42377"/><rect class="cls-18" x="124.68169" y="275.26774" width="17.42377" height="17.42377"/><rect class="cls-18" x="107.25792" y="205.57265" width="17.42377" height="69.69509"/><rect class="cls-18" x="351.19074" y="327.53906" width="17.42377" height="17.42377"/><rect class="cls-18" x="368.61451" y="310.11529" width="17.42377" height="17.42377"/><rect class="cls-18" x="368.61451" y="292.69152" width="17.42377" height="17.42377"/><rect class="cls-18" x="368.61451" y="257.84397" width="17.42377" height="34.84755"/><rect class="cls-18" x="351.19074" y="205.57265" width="17.42377" height="52.27132"/><rect class="cls-18" x="142.10547" y="257.84397" width="17.42377" height="17.42377"/><rect class="cls-18" x="142.10547" y="240.4202" width="17.42377" height="17.42377"/><rect class="cls-18" x="124.68169" y="188.14888" width="17.42377" height="17.42377"/><rect class="cls-18" x="142.10547" y="170.72511" width="17.42377" height="17.42377"/><rect class="cls-18" x="159.52924" y="153.30133" width="17.42377" height="17.42377"/><rect class="cls-18" x="333.76697" y="188.14888" width="17.42377" height="17.42377"/><rect class="cls-18" x="316.3432" y="170.72511" width="17.42377" height="17.42377"/><rect class="cls-18" x="298.91942" y="153.30133" width="17.42377" height="17.42377"/><rect class="cls-18" x="281.49565" y="135.87756" width="17.42377" height="17.42377"/><rect class="cls-18" x="176.95301" y="135.87756" width="104.54264" height="17.42377"/><rect class="cls-18" x="72.41038" y="414.65793" width="17.42377" height="17.42377"/><rect class="cls-18" x="89.83415" y="397.23415" width="17.42377" height="17.42377"/><rect class="cls-18" x="107.25792" y="379.81038" width="17.42377" height="17.42377"/><rect class="cls-18" x="124.68169" y="362.38661" width="17.42377" height="17.42377"/><rect class="cls-18" x="142.10547" y="344.96284" width="17.42377" height="17.42377"/><rect class="cls-18" x="159.52924" y="327.53906" width="52.27132" height="17.42377"/><rect class="cls-18" x="211.80056" y="344.96284" width="139.39018" height="17.42377"/><rect class="cls-18" x="333.76697" y="362.38661" width="17.42377" height="17.42377"/><rect class="cls-18" x="351.19074" y="379.81038" width="17.42377" height="17.42377"/><rect class="cls-18" x="368.61451" y="379.81038" width="17.42377" height="17.42377"/><rect class="cls-18" x="386.03829" y="397.23415" width="17.42377" height="17.42377"/><rect class="cls-18" x="403.46206" y="414.65793" width="17.42377" height="17.42377"/><rect class="cls-18" x="333.76697" y="414.65793" width="17.42377" height="17.42377"/><rect class="cls-18" x="229.22433" y="397.23415" width="17.42377" height="17.42377"/><rect class="cls-18" x="229.22433" y="414.65793" width="17.42377" height="17.42377"/><rect class="cls-18" x="159.52924" y="310.11529" width="17.42377" height="17.42377"/><rect class="cls-18" x="142.10547" y="292.69152" width="17.42377" height="17.42377"/><rect class="cls-18" x="124.68169" y="275.26774" width="17.42377" height="17.42377"/><rect class="cls-18" x="107.25792" y="205.57265" width="17.42377" height="69.69509"/><rect class="cls-18" x="351.19074" y="327.53906" width="17.42377" height="17.42377"/><rect class="cls-18" x="368.61451" y="310.11529" width="17.42377" height="17.42377"/><rect class="cls-18" x="368.61451" y="292.69152" width="17.42377" height="17.42377"/><rect class="cls-18" x="368.61451" y="257.84397" width="17.42377" height="34.84755"/><rect class="cls-18" x="351.19074" y="205.57265" width="17.42377" height="52.27132"/><rect class="cls-18" x="316.3432" y="222.99643" width="17.42377" height="34.84755"/><rect class="cls-18" x="246.6481" y="222.99643" width="17.42377" height="34.84755"/><rect class="cls-18" x="142.10547" y="257.84397" width="17.42377" height="17.42377"/><rect class="cls-18" x="142.10547" y="240.4202" width="17.42377" height="17.42377"/><rect class="cls-18" x="211.80056" y="379.81038" width="17.42377" height="17.42377"/><rect class="cls-18" x="264.07188" y="362.38661" width="17.42377" height="17.42377"/><rect class="cls-18" x="281.49565" y="362.38661" width="17.42377" height="17.42377"/><rect class="cls-18" x="298.91942" y="362.38661" width="17.42377" height="17.42377"/><rect class="cls-18" x="281.49565" y="379.81038" width="17.42377" height="17.42377"/><rect class="cls-1" x="124.68169" y="257.84397" width="17.42377" height="17.42377"/><g><rect x="386.03829" y="222.99643" width="17.42377" height="17.42377"/><rect x="107.25792" y="205.57265" width="261.35659" height="17.42377"/><rect x="368.61451" y="205.57265" width="34.84755" height="17.42377"/><rect x="368.61451" y="240.4202" width="17.42377" height="17.42377"/><rect x="351.19074" y="257.84397" width="17.42377" height="17.42377"/><rect x="333.76697" y="257.84397" width="17.42377" height="17.42377"/><rect x="316.3432" y="240.4202" width="17.42377" height="17.42377"/><rect x="281.49565" y="240.4202" width="17.42377" height="17.42377"/><rect x="264.07188" y="257.84397" width="17.42377" height="17.42377"/><rect x="246.6481" y="257.84397" width="17.42377" height="17.42377"/><rect x="229.22433" y="240.4202" width="17.42377" height="17.42377"/><rect x="298.91942" y="222.99643" width="17.42377" height="17.42377"/><rect x="211.80056" y="222.99643" width="17.42377" height="17.42377"/><rect x="351.19074" y="222.99643" width="17.42377" height="17.42377"/><rect x="316.3432" y="222.99643" width="34.84755" height="17.42377"/><rect x="333.76697" y="240.4202" width="17.42377" height="17.42377"/><rect x="264.07188" y="222.99643" width="17.42377" height="17.42377"/><rect x="229.22433" y="222.99643" width="34.84755" height="17.42377"/><rect x="246.6481" y="240.4202" width="17.42377" height="17.42377"/><rect class="cls-6" x="351.19074" y="240.4202" width="17.42377" height="17.42377"/><rect class="cls-6" x="368.61451" y="222.99643" width="17.42377" height="17.42377"/><rect class="cls-6" x="264.07188" y="240.4202" width="17.42377" height="17.42377"/><rect class="cls-6" x="281.49565" y="222.99643" width="17.42377" height="17.42377"/></g><g><rect class="cls-26" x="368.61451" y="414.65793" width="34.84755" height="17.42377"/><rect class="cls-26" x="368.61451" y="397.23415" width="34.84755" height="17.42377"/><rect class="cls-28" x="333.76697" y="379.81038" width="34.84755" height="52.27132"/><rect class="cls-7" x="298.91942" y="344.96284" width="34.84755" height="87.11886"/><rect class="cls-3" x="264.07188" y="344.96284" width="34.84755" height="87.11886"/><rect class="cls-14" x="229.22433" y="344.96284" width="34.84755" height="87.11886"/><rect class="cls-3" x="194.37679" y="344.96284" width="34.84755" height="87.11886"/><rect class="cls-28" x="142.10547" y="362.38661" width="17.42377" height="69.69509"/><rect class="cls-28" x="124.68169" y="379.81038" width="34.84755" height="52.27132"/><rect class="cls-26" x="107.25792" y="397.23415" width="17.42377" height="34.84755"/><rect class="cls-26" x="89.83415" y="414.65793" width="17.42377" height="17.42377"/><rect class="cls-7" x="159.52924" y="344.96284" width="34.84755" height="87.11886"/><rect class="cls-18" x="72.41038" y="414.65793" width="17.42377" height="17.42377"/><rect class="cls-18" x="89.83415" y="397.23415" width="17.42377" height="17.42377"/><rect class="cls-18" x="107.25792" y="379.81038" width="17.42377" height="17.42377"/><rect class="cls-18" x="124.68169" y="362.38661" width="17.42377" height="17.42377"/><rect class="cls-18" x="142.10547" y="344.96284" width="17.42377" height="17.42377"/><rect class="cls-18" x="159.52924" y="327.53906" width="52.27132" height="17.42377"/><rect class="cls-18" x="211.80056" y="344.96284" width="139.39018" height="17.42377"/><rect class="cls-18" x="333.76697" y="362.38661" width="17.42377" height="17.42377"/><rect class="cls-18" x="351.19074" y="379.81038" width="17.42377" height="17.42377"/><rect class="cls-18" x="368.61451" y="379.81038" width="17.42377" height="17.42377"/><rect class="cls-18" x="386.03829" y="397.23415" width="17.42377" height="17.42377"/><rect class="cls-18" x="403.46206" y="414.65793" width="17.42377" height="17.42377"/><rect class="cls-18" x="333.76697" y="414.65793" width="17.42377" height="17.42377"/><rect class="cls-18" x="229.22433" y="397.23415" width="17.42377" height="17.42377"/><rect class="cls-18" x="229.22433" y="414.65793" width="17.42377" height="17.42377"/><rect class="cls-18" x="211.80056" y="379.81038" width="17.42377" height="17.42377"/><rect class="cls-18" x="264.07188" y="362.38661" width="17.42377" height="17.42377"/><rect class="cls-18" x="281.49565" y="362.38661" width="17.42377" height="17.42377"/><rect class="cls-18" x="298.91942" y="362.38661" width="17.42377" height="17.42377"/><rect class="cls-18" x="281.49565" y="379.81038" width="17.42377" height="17.42377"/></g><g><rect class="cls-19" x="159.52924" y="362.38661" width="174.23773" height="69.69509"/><rect class="cls-19" x="142.10547" y="379.81038" width="243.93282" height="52.27132"/><rect class="cls-19" x="124.68169" y="397.23415" width="17.42377" height="34.84755"/><rect class="cls-19" x="107.25792" y="414.65793" width="17.42377" height="17.42377"/><rect class="cls-19" x="176.95301" y="344.96284" width="34.84755" height="17.42377"/><rect class="cls-19" x="351.19074" y="414.65793" width="52.27132" height="17.42377"/><rect class="cls-18" x="72.41038" y="414.65793" width="17.42377" height="17.42377"/><rect class="cls-18" x="89.83415" y="397.23415" width="17.42377" height="17.42377"/><rect class="cls-18" x="107.25792" y="379.81038" width="17.42377" height="17.42377"/><rect class="cls-18" x="124.68169" y="362.38661" width="17.42377" height="17.42377"/><rect class="cls-18" x="142.10547" y="344.96284" width="17.42377" height="17.42377"/><rect class="cls-18" x="159.52924" y="327.53906" width="52.27132" height="17.42377"/><rect class="cls-18" x="211.80056" y="344.96284" width="139.39018" height="17.42377"/><rect class="cls-18" x="333.76697" y="362.38661" width="17.42377" height="17.42377"/><rect class="cls-18" x="351.19074" y="379.81038" width="17.42377" height="17.42377"/><rect class="cls-18" x="368.61451" y="379.81038" width="17.42377" height="17.42377"/><rect class="cls-18" x="386.03829" y="397.23415" width="17.42377" height="17.42377"/><rect class="cls-18" x="403.46206" y="414.65793" width="17.42377" height="17.42377"/><rect class="cls-18" x="333.76697" y="414.65793" width="17.42377" height="17.42377"/><rect class="cls-18" x="229.22433" y="397.23415" width="17.42377" height="17.42377"/><rect class="cls-18" x="229.22433" y="414.65793" width="17.42377" height="17.42377"/><rect class="cls-18" x="211.80056" y="379.81038" width="17.42377" height="17.42377"/><rect class="cls-6" x="264.07188" y="362.38661" width="52.27132" height="69.69509"/><rect class="cls-14" x="281.49565" y="362.38661" width="17.42377" height="52.27132"/><rect class="cls-17" x="89.83415" y="414.65793" width="17.42377" height="17.42377"/><rect class="cls-17" x="107.25792" y="397.23415" width="17.42377" height="17.42377"/><rect class="cls-17" x="124.68169" y="379.81038" width="17.42377" height="17.42377"/><rect class="cls-17" x="142.10547" y="362.38661" width="17.42377" height="17.42377"/><rect class="cls-17" x="159.52924" y="344.96284" width="17.42377" height="17.42377"/></g><g><rect class="cls-10" x="159.52924" y="362.38661" width="174.23773" height="69.69509"/><rect class="cls-10" x="142.10547" y="379.81038" width="243.93282" height="52.27132"/><rect class="cls-10" x="124.68169" y="397.23415" width="17.42377" height="34.84755"/><rect class="cls-10" x="107.25792" y="414.65793" width="17.42377" height="17.42377"/><rect class="cls-10" x="176.95301" y="344.96284" width="34.84755" height="17.42377"/><rect class="cls-10" x="351.19074" y="414.65793" width="52.27132" height="17.42377"/><rect class="cls-18" x="72.41038" y="414.65793" width="17.42377" height="17.42377"/><rect class="cls-18" x="89.83415" y="397.23415" width="17.42377" height="17.42377"/><rect class="cls-18" x="107.25792" y="379.81038" width="17.42377" height="17.42377"/><rect class="cls-18" x="124.68169" y="362.38661" width="17.42377" height="17.42377"/><rect class="cls-18" x="142.10547" y="344.96284" width="17.42377" height="17.42377"/><rect class="cls-18" x="159.52924" y="327.53906" width="52.27132" height="17.42377"/><rect class="cls-18" x="211.80056" y="344.96284" width="139.39018" height="17.42377"/><rect class="cls-18" x="333.76697" y="362.38661" width="17.42377" height="17.42377"/><rect class="cls-18" x="351.19074" y="379.81038" width="17.42377" height="17.42377"/><rect class="cls-18" x="368.61451" y="379.81038" width="17.42377" height="17.42377"/><rect class="cls-18" x="386.03829" y="397.23415" width="17.42377" height="17.42377"/><rect class="cls-18" x="403.46206" y="414.65793" width="17.42377" height="17.42377"/><rect class="cls-18" x="333.76697" y="414.65793" width="17.42377" height="17.42377"/><rect class="cls-18" x="229.22433" y="397.23415" width="17.42377" height="17.42377"/><rect class="cls-18" x="229.22433" y="414.65793" width="17.42377" height="17.42377"/><rect class="cls-18" x="211.80056" y="379.81038" width="17.42377" height="17.42377"/><rect class="cls-6" x="264.07188" y="362.38661" width="52.27132" height="69.69509"/><rect class="cls-9" x="281.49565" y="362.38661" width="17.42377" height="52.27132"/><rect class="cls-23" x="89.83415" y="414.65793" width="17.42377" height="17.42377"/><rect class="cls-23" x="107.25792" y="397.23415" width="17.42377" height="17.42377"/><rect class="cls-23" x="124.68169" y="379.81038" width="17.42377" height="17.42377"/><rect class="cls-23" x="142.10547" y="362.38661" width="17.42377" height="17.42377"/><rect class="cls-23" x="159.52924" y="344.96284" width="17.42377" height="17.42377"/></g><g><rect class="cls-3" x="159.52924" y="362.38661" width="174.23773" height="69.69509"/><rect class="cls-3" x="142.10547" y="379.81038" width="243.93282" height="52.27132"/><rect class="cls-3" x="124.68169" y="397.23415" width="17.42377" height="34.84755"/><rect class="cls-3" x="107.25792" y="414.65793" width="17.42377" height="17.42377"/><rect class="cls-6" x="176.95301" y="344.96284" width="34.84755" height="17.42377"/><rect class="cls-3" x="351.19074" y="414.65793" width="52.27132" height="17.42377"/><rect class="cls-18" x="72.41038" y="414.65793" width="17.42377" height="17.42377"/><rect class="cls-18" x="89.83415" y="397.23415" width="17.42377" height="17.42377"/><rect class="cls-18" x="107.25792" y="379.81038" width="17.42377" height="17.42377"/><rect class="cls-18" x="124.68169" y="362.38661" width="17.42377" height="17.42377"/><rect class="cls-18" x="142.10547" y="344.96284" width="17.42377" height="17.42377"/><rect class="cls-18" x="159.52924" y="327.53906" width="52.27132" height="17.42377"/><rect class="cls-18" x="211.80056" y="344.96284" width="139.39018" height="17.42377"/><rect class="cls-18" x="333.76697" y="362.38661" width="17.42377" height="17.42377"/><rect class="cls-18" x="351.19074" y="379.81038" width="17.42377" height="17.42377"/><rect class="cls-18" x="368.61451" y="379.81038" width="17.42377" height="17.42377"/><rect class="cls-18" x="386.03829" y="397.23415" width="17.42377" height="17.42377"/><rect class="cls-18" x="403.46206" y="414.65793" width="17.42377" height="17.42377"/><rect class="cls-18" x="229.22433" y="397.23415" width="17.42377" height="17.42377"/><rect class="cls-18" x="194.37679" y="379.81038" width="17.42377" height="17.42377"/><rect class="cls-18" x="211.80056" y="379.81038" width="17.42377" height="17.42377"/><rect class="cls-18" x="246.6481" y="362.38661" width="17.42377" height="17.42377"/><rect class="cls-18" x="264.07188" y="362.38661" width="17.42377" height="17.42377"/><rect class="cls-18" x="281.49565" y="362.38661" width="17.42377" height="17.42377"/><rect class="cls-18" x="264.07188" y="379.81038" width="17.42377" height="17.42377"/><rect class="cls-4" x="89.83415" y="414.65793" width="17.42377" height="17.42377"/><rect class="cls-4" x="107.25792" y="397.23415" width="17.42377" height="17.42377"/><rect class="cls-4" x="124.68169" y="379.81038" width="17.42377" height="17.42377"/><rect class="cls-4" x="142.10547" y="362.38661" width="17.42377" height="17.42377"/><rect class="cls-13" x="159.52924" y="344.96284" width="17.42377" height="17.42377"/><rect class="cls-18" x="159.52924" y="362.38661" width="17.42377" height="17.42377"/><rect class="cls-18" x="176.95301" y="379.81038" width="17.42377" height="17.42377"/><rect class="cls-18" x="246.6481" y="397.23415" width="17.42377" height="17.42377"/><rect class="cls-18" x="264.07188" y="397.23415" width="17.42377" height="17.42377"/><rect class="cls-18" x="281.49565" y="397.23415" width="17.42377" height="17.42377"/><rect class="cls-18" x="298.91942" y="379.81038" width="17.42377" height="17.42377"/><rect class="cls-18" x="316.3432" y="379.81038" width="17.42377" height="17.42377"/><rect class="cls-4" x="333.76697" y="414.65793" width="17.42377" height="17.42377"/><rect class="cls-4" x="386.03829" y="414.65793" width="17.42377" height="17.42377"/><rect class="cls-4" x="368.61451" y="397.23415" width="17.42377" height="17.42377"/><rect class="cls-4" x="333.76697" y="379.81038" width="17.42377" height="17.42377"/><rect class="cls-4" x="351.19074" y="397.23415" width="17.42377" height="17.42377"/><rect class="cls-6" x="176.95301" y="362.38661" width="69.69509" height="17.42377"/><rect class="cls-6" x="229.22433" y="379.81038" width="34.84755" height="17.42377"/><rect class="cls-6" x="298.91942" y="362.38661" width="34.84755" height="17.42377"/><rect class="cls-6" x="281.49565" y="379.81038" width="17.42377" height="17.42377"/></g><g><rect class="cls-3" x="159.52924" y="362.38661" width="174.23773" height="69.69509"/><rect class="cls-27" x="142.10547" y="379.81038" width="243.93282" height="52.27132"/><rect class="cls-27" x="124.68169" y="397.23415" width="17.42377" height="34.84755"/><rect class="cls-27" x="107.25792" y="414.65793" width="17.42377" height="17.42377"/><rect class="cls-6" x="176.95301" y="344.96284" width="34.84755" height="17.42377"/><rect class="cls-27" x="351.19074" y="414.65793" width="52.27132" height="17.42377"/><rect class="cls-18" x="72.41038" y="414.65793" width="17.42377" height="17.42377"/><rect class="cls-18" x="89.83415" y="397.23415" width="17.42377" height="17.42377"/><rect class="cls-18" x="107.25792" y="379.81038" width="17.42377" height="17.42377"/><rect class="cls-18" x="124.68169" y="362.38661" width="17.42377" height="17.42377"/><rect class="cls-18" x="142.10547" y="344.96284" width="17.42377" height="17.42377"/><rect class="cls-18" x="159.52924" y="327.53906" width="52.27132" height="17.42377"/><rect class="cls-18" x="211.80056" y="344.96284" width="139.39018" height="17.42377"/><rect class="cls-18" x="333.76697" y="362.38661" width="17.42377" height="17.42377"/><rect class="cls-18" x="351.19074" y="379.81038" width="17.42377" height="17.42377"/><rect class="cls-18" x="368.61451" y="379.81038" width="17.42377" height="17.42377"/><rect class="cls-18" x="386.03829" y="397.23415" width="17.42377" height="17.42377"/><rect class="cls-18" x="403.46206" y="414.65793" width="17.42377" height="17.42377"/><rect class="cls-18" x="229.22433" y="397.23415" width="17.42377" height="17.42377"/><rect class="cls-18" x="194.37679" y="379.81038" width="17.42377" height="17.42377"/><rect class="cls-18" x="211.80056" y="379.81038" width="17.42377" height="17.42377"/><rect class="cls-18" x="246.6481" y="362.38661" width="17.42377" height="17.42377"/><rect class="cls-18" x="264.07188" y="362.38661" width="17.42377" height="17.42377"/><rect class="cls-18" x="281.49565" y="362.38661" width="17.42377" height="17.42377"/><rect class="cls-18" x="264.07188" y="379.81038" width="17.42377" height="17.42377"/><rect class="cls-21" x="89.83415" y="414.65793" width="17.42377" height="17.42377"/><rect class="cls-21" x="107.25792" y="397.23415" width="17.42377" height="17.42377"/><rect class="cls-21" x="124.68169" y="379.81038" width="17.42377" height="17.42377"/><rect class="cls-21" x="142.10547" y="362.38661" width="17.42377" height="17.42377"/><rect class="cls-13" x="159.52924" y="344.96284" width="17.42377" height="17.42377"/><rect class="cls-18" x="159.52924" y="362.38661" width="17.42377" height="17.42377"/><rect class="cls-18" x="176.95301" y="379.81038" width="17.42377" height="17.42377"/><rect class="cls-18" x="246.6481" y="397.23415" width="17.42377" height="17.42377"/><rect class="cls-18" x="264.07188" y="397.23415" width="17.42377" height="17.42377"/><rect class="cls-18" x="281.49565" y="397.23415" width="17.42377" height="17.42377"/><rect class="cls-18" x="298.91942" y="379.81038" width="17.42377" height="17.42377"/><rect class="cls-18" x="316.3432" y="379.81038" width="17.42377" height="17.42377"/><rect class="cls-21" x="333.76697" y="414.65793" width="17.42377" height="17.42377"/><rect class="cls-21" x="386.03829" y="414.65793" width="17.42377" height="17.42377"/><rect class="cls-21" x="368.61451" y="397.23415" width="17.42377" height="17.42377"/><rect class="cls-21" x="333.76697" y="379.81038" width="17.42377" height="17.42377"/><rect class="cls-21" x="351.19074" y="397.23415" width="17.42377" height="17.42377"/><rect class="cls-6" x="176.95301" y="362.38661" width="69.69509" height="17.42377"/><rect class="cls-6" x="229.22433" y="379.81038" width="34.84755" height="17.42377"/><rect class="cls-6" x="298.91942" y="362.38661" width="34.84755" height="17.42377"/><rect class="cls-6" x="281.49565" y="379.81038" width="17.42377" height="17.42377"/></g><rect class="cls-3" x="159.52924" y="362.38661" width="174.23773" height="69.69509"/><rect class="cls-22" x="142.10547" y="379.81038" width="243.93282" height="52.27132"/><rect class="cls-22" x="124.68169" y="397.23415" width="17.42377" height="34.84755"/><rect class="cls-22" x="107.25792" y="414.65793" width="17.42377" height="17.42377"/><rect class="cls-6" x="176.95301" y="344.96284" width="34.84755" height="17.42377"/><rect class="cls-22" x="351.19074" y="414.65793" width="52.27132" height="17.42377"/><rect class="cls-18" x="72.41038" y="414.65793" width="17.42377" height="17.42377"/><rect class="cls-18" x="89.83415" y="397.23415" width="17.42377" height="17.42377"/><rect class="cls-18" x="107.25792" y="379.81038" width="17.42377" height="17.42377"/><rect class="cls-18" x="124.68169" y="362.38661" width="17.42377" height="17.42377"/><rect class="cls-18" x="142.10547" y="344.96284" width="17.42377" height="17.42377"/><rect class="cls-18" x="159.52924" y="327.53906" width="52.27132" height="17.42377"/><rect class="cls-18" x="211.80056" y="344.96284" width="139.39018" height="17.42377"/><rect class="cls-18" x="333.76697" y="362.38661" width="17.42377" height="17.42377"/><rect class="cls-18" x="351.19074" y="379.81038" width="17.42377" height="17.42377"/><rect class="cls-18" x="368.61451" y="379.81038" width="17.42377" height="17.42377"/><rect class="cls-18" x="386.03829" y="397.23415" width="17.42377" height="17.42377"/><rect class="cls-18" x="403.46206" y="414.65793" width="17.42377" height="17.42377"/><rect class="cls-18" x="229.22433" y="397.23415" width="17.42377" height="17.42377"/><rect class="cls-18" x="194.37679" y="379.81038" width="17.42377" height="17.42377"/><rect class="cls-18" x="211.80056" y="379.81038" width="17.42377" height="17.42377"/><rect class="cls-18" x="246.6481" y="362.38661" width="17.42377" height="17.42377"/><rect class="cls-18" x="264.07188" y="362.38661" width="17.42377" height="17.42377"/><rect class="cls-18" x="281.49565" y="362.38661" width="17.42377" height="17.42377"/><rect class="cls-18" x="264.07188" y="379.81038" width="17.42377" height="17.42377"/><rect class="cls-24" x="89.83415" y="414.65793" width="17.42377" height="17.42377"/><rect class="cls-24" x="107.25792" y="397.23415" width="17.42377" height="17.42377"/><rect class="cls-24" x="124.68169" y="379.81038" width="17.42377" height="17.42377"/><rect class="cls-24" x="142.10547" y="362.38661" width="17.42377" height="17.42377"/><rect class="cls-13" x="159.52924" y="344.96284" width="17.42377" height="17.42377"/><rect class="cls-18" x="159.52924" y="362.38661" width="17.42377" height="17.42377"/><rect class="cls-18" x="176.95301" y="379.81038" width="17.42377" height="17.42377"/><rect class="cls-18" x="246.6481" y="397.23415" width="17.42377" height="17.42377"/><rect class="cls-18" x="264.07188" y="397.23415" width="17.42377" height="17.42377"/><rect class="cls-18" x="281.49565" y="397.23415" width="17.42377" height="17.42377"/><rect class="cls-18" x="298.91942" y="379.81038" width="17.42377" height="17.42377"/><rect class="cls-18" x="316.3432" y="379.81038" width="17.42377" height="17.42377"/><rect class="cls-24" x="333.76697" y="414.65793" width="17.42377" height="17.42377"/><rect class="cls-24" x="386.03829" y="414.65793" width="17.42377" height="17.42377"/><rect class="cls-24" x="368.61451" y="397.23415" width="17.42377" height="17.42377"/><rect class="cls-24" x="333.76697" y="379.81038" width="17.42377" height="17.42377"/><rect class="cls-24" x="351.19074" y="397.23415" width="17.42377" height="17.42377"/><rect class="cls-6" x="176.95301" y="362.38661" width="69.69509" height="17.42377"/><rect class="cls-6" x="229.22433" y="379.81038" width="34.84755" height="17.42377"/><rect class="cls-6" x="298.91942" y="362.38661" width="34.84755" height="17.42377"/><rect class="cls-6" x="281.49565" y="379.81038" width="17.42377" height="17.42377"/><g><rect class="cls-26" x="368.61451" y="414.65793" width="34.84755" height="17.42377"/><rect class="cls-28" x="333.76697" y="379.81038" width="34.84755" height="52.27132"/><rect class="cls-7" x="298.91942" y="397.23415" width="34.84755" height="34.84755"/><rect class="cls-3" x="264.07188" y="397.23415" width="34.84755" height="34.84755"/><rect class="cls-14" x="229.22433" y="397.23415" width="34.84755" height="34.84755"/><rect class="cls-3" x="194.37679" y="379.81038" width="34.84755" height="52.27132"/><rect class="cls-28" x="124.68169" y="379.81038" width="34.84755" height="52.27132"/><rect class="cls-7" x="159.52924" y="379.81038" width="34.84755" height="52.27132"/><rect class="cls-20" x="107.25792" y="414.65793" width="17.42377" height="17.42377"/><rect class="cls-6" x="176.95301" y="344.96284" width="34.84755" height="17.42377"/><rect class="cls-18" x="72.41038" y="414.65793" width="17.42377" height="17.42377"/><rect class="cls-18" x="89.83415" y="397.23415" width="17.42377" height="17.42377"/><rect class="cls-18" x="107.25792" y="379.81038" width="17.42377" height="17.42377"/><rect class="cls-18" x="124.68169" y="362.38661" width="17.42377" height="17.42377"/><rect class="cls-18" x="142.10547" y="344.96284" width="17.42377" height="17.42377"/><rect class="cls-18" x="159.52924" y="327.53906" width="52.27132" height="17.42377"/><rect class="cls-18" x="211.80056" y="344.96284" width="139.39018" height="17.42377"/><rect class="cls-18" x="333.76697" y="362.38661" width="17.42377" height="17.42377"/><rect class="cls-18" x="351.19074" y="379.81038" width="17.42377" height="17.42377"/><rect class="cls-18" x="368.61451" y="379.81038" width="17.42377" height="17.42377"/><rect class="cls-18" x="386.03829" y="397.23415" width="17.42377" height="17.42377"/><rect class="cls-18" x="403.46206" y="414.65793" width="17.42377" height="17.42377"/><rect class="cls-18" x="229.22433" y="397.23415" width="17.42377" height="17.42377"/><rect class="cls-18" x="194.37679" y="379.81038" width="17.42377" height="17.42377"/><rect class="cls-18" x="211.80056" y="379.81038" width="17.42377" height="17.42377"/><rect class="cls-18" x="246.6481" y="362.38661" width="17.42377" height="17.42377"/><rect class="cls-18" x="264.07188" y="362.38661" width="17.42377" height="17.42377"/><rect class="cls-18" x="281.49565" y="362.38661" width="17.42377" height="17.42377"/><rect class="cls-18" x="264.07188" y="379.81038" width="17.42377" height="17.42377"/><rect class="cls-25" x="89.83415" y="414.65793" width="17.42377" height="17.42377"/><rect class="cls-25" x="107.25792" y="397.23415" width="17.42377" height="17.42377"/><rect class="cls-24" x="124.68169" y="379.81038" width="17.42377" height="17.42377"/><rect class="cls-24" x="142.10547" y="362.38661" width="17.42377" height="17.42377"/><rect class="cls-13" x="159.52924" y="344.96284" width="17.42377" height="17.42377"/><rect class="cls-18" x="159.52924" y="362.38661" width="17.42377" height="17.42377"/><rect class="cls-18" x="176.95301" y="379.81038" width="17.42377" height="17.42377"/><rect class="cls-18" x="246.6481" y="397.23415" width="17.42377" height="17.42377"/><rect class="cls-18" x="264.07188" y="397.23415" width="17.42377" height="17.42377"/><rect class="cls-18" x="281.49565" y="397.23415" width="17.42377" height="17.42377"/><rect class="cls-18" x="298.91942" y="379.81038" width="17.42377" height="17.42377"/><rect class="cls-18" x="316.3432" y="379.81038" width="17.42377" height="17.42377"/><rect class="cls-24" x="333.76697" y="414.65793" width="17.42377" height="17.42377"/><rect class="cls-25" x="386.03829" y="414.65793" width="17.42377" height="17.42377"/><rect class="cls-25" x="368.61451" y="397.23415" width="17.42377" height="17.42377"/><rect class="cls-24" x="333.76697" y="379.81038" width="17.42377" height="17.42377"/><rect class="cls-24" x="351.19074" y="397.23415" width="17.42377" height="17.42377"/><rect class="cls-6" x="176.95301" y="362.38661" width="69.69509" height="17.42377"/><rect class="cls-6" x="229.22433" y="379.81038" width="34.84755" height="17.42377"/><rect class="cls-6" x="298.91942" y="362.38661" width="34.84755" height="17.42377"/><rect class="cls-6" x="281.49565" y="379.81038" width="17.42377" height="17.42377"/></g><g><rect class="cls-12" x="386.03829" y="205.57265" width="17.42377" height="34.84755"/><rect class="cls-6" x="107.25792" y="205.57265" width="104.54264" height="17.42377"/><rect class="cls-26" x="368.61451" y="205.57265" width="17.42377" height="52.27132"/><rect class="cls-28" x="351.19074" y="205.57265" width="17.42377" height="69.69509"/><rect class="cls-7" x="333.76697" y="205.57265" width="17.42377" height="69.69509"/><rect class="cls-3" x="316.3432" y="205.57265" width="17.42377" height="52.27132"/><rect class="cls-3" x="281.49565" y="205.57265" width="17.42377" height="52.27132"/><rect class="cls-7" x="264.07188" y="205.57265" width="17.42377" height="69.69509"/><rect class="cls-28" x="246.6481" y="205.57265" width="17.42377" height="69.69509"/><rect class="cls-26" x="229.22433" y="205.57265" width="17.42377" height="52.27132"/><rect class="cls-14" x="298.91942" y="205.57265" width="17.42377" height="34.84755"/><rect class="cls-12" x="211.80056" y="205.57265" width="17.42377" height="34.84755"/></g><g><rect class="cls-18" x="333.76697" y="292.69152" width="17.42377" height="34.84755"/><rect class="cls-18" x="351.19074" y="310.11529" width="17.42377" height="17.42377"/><rect class="cls-18" x="298.91942" y="310.11529" width="52.27132" height="17.42377"/><rect class="cls-11" x="333.76697" y="310.11529" width="17.42377" height="17.42377"/><rect class="cls-13" x="420.88583" y="292.69152" width="17.42377" height="17.42377"/><rect class="cls-13" x="420.88583" y="257.84397" width="17.42377" height="17.42377"/><rect class="cls-13" x="420.88583" y="222.99643" width="17.42377" height="17.42377"/><rect class="cls-13" x="403.46206" y="170.72511" width="52.27132" height="34.84755"/><rect class="cls-18" x="333.76697" y="327.53906" width="17.42377" height="17.42377"/><rect class="cls-11" x="351.19074" y="327.53906" width="17.42377" height="17.42377"/><rect class="cls-11" x="368.61451" y="344.96284" width="17.42377" height="17.42377"/><rect class="cls-11" x="386.03829" y="362.38661" width="17.42377" height="17.42377"/><rect class="cls-11" x="403.46206" y="362.38661" width="34.84755" height="17.42377"/><rect class="cls-11" x="403.46206" y="344.96284" width="34.84755" height="17.42377"/><rect class="cls-18" x="351.19074" y="344.96284" width="17.42377" height="17.42377"/><rect class="cls-18" x="368.61451" y="362.38661" width="17.42377" height="17.42377"/><rect class="cls-18" x="386.03829" y="379.81038" width="17.42377" height="17.42377"/><rect class="cls-18" x="368.61451" y="327.53906" width="17.42377" height="17.42377"/><rect class="cls-18" x="386.03829" y="344.96284" width="17.42377" height="17.42377"/><rect class="cls-18" x="403.46206" y="327.53906" width="17.42377" height="17.42377"/><rect class="cls-18" x="438.30961" y="327.53906" width="17.42377" height="17.42377"/><rect class="cls-18" x="420.88583" y="327.53906" width="17.42377" height="17.42377"/><rect class="cls-18" x="438.30961" y="344.96284" width="17.42377" height="17.42377"/><rect class="cls-18" x="438.30961" y="362.38661" width="17.42377" height="17.42377"/><rect class="cls-18" x="403.46206" y="379.81038" width="17.42377" height="17.42377"/><rect class="cls-18" x="420.88583" y="379.81038" width="17.42377" height="17.42377"/><rect class="cls-13" x="420.88583" y="153.30133" width="17.42377" height="17.42377"/></g><g><rect class="cls-6" x="124.68169" y="118.45379" width="156.81396" height="87.11886"/><rect class="cls-6" x="159.52924" y="101.03002" width="156.81396" height="87.11886"/><rect class="cls-3" x="246.6481" y="101.03002" width="87.11886" height="52.27132"/><rect class="cls-3" x="89.83415" y="170.72511" width="34.84755" height="17.42377"/><rect class="cls-3" x="264.07188" y="118.45379" width="87.11886" height="69.69509"/><rect class="cls-18" x="54.9866" y="188.14888" width="313.62791" height="17.42377"/><rect class="cls-18" x="351.19074" y="135.87756" width="17.42377" height="52.27132"/><rect class="cls-18" x="159.52914" y="83.60568" width="156.81412" height="17.42377"/><rect class="cls-18" x="107.25792" y="135.87756" width="17.42377" height="17.42377"/><rect class="cls-18" x="54.9866" y="170.72511" width="17.42377" height="17.42377"/><rect class="cls-18" x="72.41038" y="153.30133" width="52.27132" height="17.42377"/><rect class="cls-18" x="124.68169" y="118.45379" width="17.42377" height="17.42377"/><rect class="cls-18" x="142.10547" y="101.03002" width="17.42377" height="17.42377"/><rect class="cls-18" x="316.3432" y="101.03002" width="17.42377" height="17.42377"/><rect class="cls-18" x="333.76697" y="118.45379" width="17.42377" height="17.42377"/><rect class="cls-3" x="229.22433" y="101.03002" width="87.11886" height="34.84755"/><rect class="cls-3" x="211.80056" y="101.03002" width="87.11886" height="17.42377"/><rect class="cls-8" x="124.68169" y="153.30133" width="69.69509" height="17.42377"/><rect class="cls-8" x="194.37679" y="135.87756" width="17.42377" height="17.42377"/><rect class="cls-8" x="176.95301" y="118.45379" width="17.42377" height="17.42377"/><rect class="cls-2" x="72.41038" y="170.72511" width="17.42377" height="17.42377"/><rect class="cls-16" x="159.52924" y="101.03002" width="17.42377" height="17.42377"/><rect class="cls-16" x="142.10547" y="118.45379" width="17.42377" height="17.42377"/><rect class="cls-16" x="124.68169" y="135.87756" width="17.42377" height="17.42377"/><rect class="cls-14" x="333.76697" y="135.87756" width="17.42377" height="52.27132"/><rect class="cls-14" x="316.3432" y="118.45379" width="17.42377" height="17.42377"/><rect class="cls-14" x="298.91942" y="101.03002" width="17.42377" height="17.42377"/><rect class="cls-7" x="298.91942" y="135.87756" width="17.42377" height="52.27132"/><rect class="cls-7" x="281.49565" y="118.45379" width="17.42377" height="17.42377"/><rect class="cls-7" x="264.07188" y="101.03002" width="17.42377" height="17.42377"/><rect class="cls-28" x="281.49565" y="135.87756" width="17.42377" height="52.27132"/><rect class="cls-28" x="264.07188" y="118.45379" width="17.42377" height="17.42377"/><rect class="cls-28" x="246.6481" y="101.03002" width="17.42377" height="17.42377"/><rect class="cls-26" x="264.07188" y="135.87756" width="17.42377" height="52.27132"/><rect class="cls-26" x="246.6481" y="118.45379" width="17.42377" height="17.42377"/><rect class="cls-26" x="229.22433" y="101.03002" width="17.42377" height="17.42377"/><rect class="cls-15" x="229.22433" y="118.45379" width="17.42377" height="17.42377"/><rect class="cls-15" x="211.80056" y="101.03002" width="17.42377" height="17.42377"/><rect class="cls-15" x="246.6481" y="135.87756" width="17.42377" height="17.42377"/><rect class="cls-26" x="89.83415" y="170.72511" width="17.42377" height="17.42377"/><rect class="cls-15" x="107.25792" y="170.72511" width="17.42377" height="17.42377"/><rect class="cls-24" x="72.41038" y="170.72511" width="17.42377" height="17.42377"/></g></svg>